<svg version="1.1" id="Layer_1" xmlns="http://www.w3.org/2000/svg" xmlns:xlink="http://www.w3.org/1999/xlink" x="0px" y="0px"
	 width="100%" viewBox="0 0 856 116" enable-background="new 0 0 856 116" xml:space="preserve">
<path fill="#3E84F6" opacity="1.000000" stroke="none"
	d="
M99.998611,97.912163
	C99.632195,99.966843 99.334038,101.603050 98.979309,103.226906
	C97.751236,108.848663 93.505325,112.774071 87.759682,112.819153
	C69.428734,112.962975 51.095402,112.960358 32.764256,112.832809
	C26.559593,112.789642 22.148697,108.792122 21.049702,102.619461
	C19.884619,96.075615 19.622704,89.284660 17.712444,82.981651
	C15.329685,75.119606 12.408904,67.228737 8.402963,60.089577
	C-0.550526,44.133179 4.240489,38.631760 17.193319,33.391521
	C30.059586,28.186302 39.864506,19.214945 49.161278,9.312955
	C56.957306,1.009414 62.792988,1.156789 70.769646,9.079411
	C70.887878,9.196845 71.015572,9.306534 71.121712,9.434101
	C80.899712,21.185915 93.188683,29.355692 107.086800,35.548409
	C116.927757,39.933334 118.593300,46.034283 113.689980,55.798088
	C113.466019,56.244057 113.294144,56.721241 113.030350,57.141411
	C105.277893,69.489395 101.052002,82.970718 99.998611,97.912163
M101.080017,41.389366
	C88.549339,36.008228 77.270454,28.879620 68.522087,18.181681
	C67.578712,17.028076 66.402565,16.065313 65.338730,15.009653
	C60.581631,10.289079 59.198788,10.018455 54.884087,14.963182
	C44.192612,27.215826 31.542723,36.614674 16.461000,42.720005
	C16.152605,42.844849 15.852601,42.990276 15.547090,43.122417
	C11.554124,44.849445 11.148306,47.631462 13.043444,51.227539
	C15.369800,55.641872 17.375069,60.238995 19.907028,64.528122
	C23.442625,70.517410 25.449181,76.884933 26.103365,83.778595
	C26.390694,86.806374 27.109758,89.793182 27.697983,93.173195
	C30.659719,89.621689 32.942951,86.305946 35.808071,83.608192
	C38.763294,80.825600 42.284813,78.644447 45.558170,76.199646
	C37.498516,64.075310 37.735691,53.423237 46.238289,45.653896
	C53.793941,38.749840 65.347809,38.393250 73.251701,44.820164
	C82.701103,52.503784 83.249588,62.321198 75.460083,75.636810
	C81.322014,81.131966 87.038712,86.490982 93.019112,92.097191
	C93.113747,79.059685 97.949539,67.231056 104.552078,55.994648
	C104.973328,55.277767 105.339592,54.527718 105.714127,53.784378
	C109.641289,45.990334 109.505981,45.586964 101.080017,41.389366
M56.198769,82.754036
	C56.877243,85.614960 57.428848,88.519966 58.389030,91.282982
	C58.514076,91.642807 61.688015,91.611549 61.841812,91.183586
	C62.784122,88.561508 63.278339,85.776184 63.865017,83.033081
	C63.908150,82.831413 63.504631,82.534210 63.230648,82.180611
	C61.160213,82.180611 59.018940,82.180611 56.198769,82.754036
z"/>
<path fill="#1C2C59" opacity="1.000000" stroke="none"
	d="
M426.842529,38.059170
	C433.154510,39.943691 439.017670,41.818901 445.221802,43.803165
	C445.221802,37.918423 445.221802,30.787502 445.221802,23.417339
	C451.187897,23.417339 456.408081,23.417339 461.855621,23.417339
	C461.855621,50.721649 461.855621,77.794617 461.855621,105.099213
	C456.504242,105.099213 451.247406,105.099213 445.747528,105.099213
	C445.552399,102.996101 445.373901,101.072609 445.155365,98.717026
	C431.977692,108.421600 418.686340,109.187103 406.098724,98.981224
	C394.595551,89.654610 391.046753,72.953186 396.362274,58.498119
	C401.061981,45.717804 411.736725,38.449417 426.842529,38.059170
M420.833923,89.121559
	C425.311096,89.189720 429.832031,89.682838 434.255219,89.227081
	C440.996979,88.532425 444.473785,84.553741 445.229675,77.753922
	C446.702148,64.507683 444.410248,57.570522 437.695343,54.984959
	C437.232544,54.806763 436.735107,54.622658 436.250183,54.612423
	C431.125671,54.504284 425.897278,53.752441 420.900330,54.512135
	C413.966614,55.566277 410.407837,60.995312 409.668396,69.586243
	C408.816711,79.481903 412.004974,85.436592 420.833923,89.121559
z"/>
<path fill="#1D2E5A" opacity="1.000000" stroke="none"
	d="
M291.309509,85.010399
	C293.000366,84.086258 294.382629,82.984718 295.819672,82.907921
	C300.277863,82.669640 304.756866,82.820747 309.259766,82.820747
	C307.556854,99.418465 292.685059,107.856682 271.204285,105.793068
	C251.770767,103.926132 241.330551,89.464607 243.340897,67.274734
	C245.237228,46.343510 259.385986,35.919216 282.718018,38.263069
	C302.728271,40.273235 312.977966,54.419659 310.731140,77.502350
	C293.879883,77.502350 276.968353,77.502350 259.811737,77.502350
	C260.277435,83.296265 263.399750,87.099739 267.948517,88.295990
	C275.812073,90.363998 284.039642,91.612045 291.309509,85.010399
M266.551971,55.762783
	C264.425323,57.870300 262.298676,59.977818 259.346222,62.903717
	C271.990143,62.903717 282.789856,62.903717 293.746552,62.903717
	C292.032288,57.803303 288.577179,54.722584 283.912048,54.409985
	C278.383026,54.039501 272.769073,54.936428 266.551971,55.762783
z"/>
<path fill="#1B2C59" opacity="1.000000" stroke="none"
	d="
M369.899811,99.228256
	C364.305695,101.227760 358.950745,105.038658 353.247192,105.662384
	C332.938751,107.883263 317.572754,91.590172 318.749481,70.133949
	C319.867371,49.750645 334.671356,35.941177 353.555481,38.445965
	C359.046967,39.174358 364.241608,42.140701 369.773438,44.154400
	C369.867157,43.078102 370.043823,41.049374 370.235199,38.851212
	C375.630585,38.851212 380.918243,38.851212 386.525238,38.851212
	C386.525238,60.869358 386.525238,82.757294 386.525238,104.987000
	C381.198547,104.987000 375.791016,104.987000 369.979065,104.987000
	C369.979065,103.192444 369.979065,101.385086 369.899811,99.228256
M337.218170,59.870888
	C332.539429,68.524399 333.046509,79.236282 338.411896,85.088799
	C342.681458,89.745918 354.959503,91.542953 362.376495,88.501778
	C367.184418,86.530396 369.765533,82.600731 369.799530,77.648186
	C369.851349,70.095413 372.281403,61.665459 364.405853,56.141064
	C357.863831,51.552071 343.241638,53.411148 337.218170,59.870888
z"/>
<path fill="#1B2B59" opacity="1.000000" stroke="none"
	d="
M221.996155,88.673889
	C227.475174,88.673973 232.455353,88.673973 237.802231,88.673973
	C237.802231,94.135445 237.802231,99.347061 237.802231,104.962326
	C236.725952,105.072220 235.482895,105.306503 234.239273,105.309441
	C222.423615,105.337379 210.607437,105.387947 198.792221,105.310654
	C183.367752,105.209747 175.384964,97.318443 175.309860,81.996155
	C175.220932,63.856937 175.283371,45.716949 175.300674,27.577316
	C175.301895,26.285952 175.470978,24.994747 175.580475,23.441587
	C181.080399,23.441587 186.308060,23.441587 192.079346,23.441587
	C192.079346,27.335752 192.079346,31.112114 192.079346,34.888477
	C192.079361,51.031101 192.210800,67.175514 191.991501,83.315155
	C191.933151,87.610840 193.555710,88.820068 197.534241,88.728287
	C205.518097,88.544106 213.509201,88.673706 221.996155,88.673889
z"/>
<path fill="#4186F6" opacity="1.000000" stroke="none"
	d="
M638.944946,80.000000
	C638.944946,88.478966 638.944946,96.457939 638.944946,104.847778
	C635.739441,104.847778 632.846497,104.847778 629.544861,104.847778
	C629.313110,103.089859 629.063538,101.196556 628.728455,98.654266
	C622.795471,103.481049 616.429871,106.174377 609.003296,106.065536
	C592.037170,105.816879 579.848938,95.030670 578.210999,78.105515
	C577.075623,66.373520 578.215149,55.053268 587.419861,46.219517
	C597.507629,36.538315 614.146240,35.241219 625.671692,43.167698
	C626.575500,43.789280 627.512573,44.362583 628.836060,45.218109
	C629.042419,42.924137 629.199829,41.173687 629.387268,39.089920
	C632.464539,39.089920 635.371460,39.089920 638.944946,39.089920
	C638.944946,52.613956 638.944946,66.056976 638.944946,80.000000
M611.368774,47.769283
	C609.706604,47.769474 608.044250,47.752674 606.382324,47.772690
	C597.465942,47.880066 591.991272,51.672802 589.272339,60.109737
	C586.815063,67.734840 586.867493,75.547310 589.201233,83.168495
	C591.869080,91.880783 597.503052,95.793365 606.634766,95.914497
	C608.628967,95.940956 610.626465,95.980400 612.617981,95.900993
	C622.389221,95.511383 628.399536,89.789978 628.941040,80.047173
	C629.226501,74.910645 629.190186,69.742332 629.022583,64.597382
	C628.664246,53.596897 623.360229,48.345261 611.368774,47.769283
z"/>
<path fill="#4085F6" opacity="1.000000" stroke="none"
	d="
M809.731323,45.227966
	C817.103027,53.105164 819.882996,61.822266 818.855774,74.125626
	C802.552307,74.125626 786.172302,74.125626 769.890564,74.125626
	C768.103210,88.351425 774.585815,95.688515 787.822693,96.158783
	C796.984924,96.484283 803.949158,94.298737 808.309204,85.323021
	C809.229004,83.429466 814.201294,83.504471 817.675659,82.573502
	C816.744995,95.219612 805.554504,104.864288 791.972351,105.904419
	C774.318909,107.256340 761.204895,96.226685 759.917603,78.561790
	C759.522461,73.138710 759.354126,67.504776 760.354797,62.207867
	C764.751160,38.936836 790.428162,30.057217 809.731323,45.227966
M771.547546,56.318428
	C770.854797,59.143589 770.162048,61.968746 769.350952,65.276627
	C783.026917,65.276627 795.869080,65.276627 808.713440,65.276627
	C808.643494,53.643600 803.451538,48.076027 792.687683,47.794518
	C789.859619,47.720551 787.024475,47.709106 784.198181,47.816307
	C778.607300,48.028370 774.272034,50.318810 771.547546,56.318428
z"/>
<path fill="#3F84F6" opacity="1.000000" stroke="none"
	d="
M723.223389,63.182785
	C729.923340,56.699898 736.824951,50.786198 742.512451,43.873642
	C747.422241,37.906319 753.102112,38.472599 761.060181,39.116360
	C751.347656,48.170162 742.632568,56.294205 733.729187,64.593773
	C744.252625,78.493279 754.024170,91.399704 764.119446,104.733673
	C757.018921,106.134148 752.076904,105.386429 747.958069,99.027710
	C742.021179,89.862358 734.862610,81.488304 728.017639,72.503838
	C724.083862,74.924759 721.825073,77.681839 722.059692,82.539726
	C722.411865,89.830376 722.151306,97.150612 722.151306,104.855431
	C719.082642,104.855431 716.348511,104.855431 713.175537,104.855431
	C713.175537,77.932961 713.175537,50.893440 713.175537,23.494255
	C715.897888,23.494255 718.635132,23.494255 722.151306,23.494255
	C722.151306,27.399904 722.079895,31.323576 722.165588,35.243809
	C722.370300,44.602852 722.649109,53.960278 723.223389,63.182785
z"/>
<path fill="#4387F6" opacity="1.000000" stroke="none"
	d="
M671.510498,105.762131
	C654.208679,102.065659 645.673218,90.458031 646.200317,71.332047
	C646.550110,58.641582 649.594666,46.990452 662.310730,40.955887
	C676.374695,34.281654 699.560303,37.724064 704.364624,58.803612
	C699.646973,59.137398 695.125366,60.503651 692.428101,54.248135
	C690.608032,50.027084 686.362732,47.770588 681.374695,47.853500
	C679.545105,47.883911 677.713562,47.779373 675.882935,47.778683
	C662.359009,47.773579 657.570557,51.447319 656.411377,64.804680
	C655.804993,71.791817 656.855957,79.030495 657.981140,86.023193
	C658.761658,90.873978 662.201782,94.692024 667.305664,95.221581
	C673.020264,95.814507 678.985718,96.073265 684.569397,95.025108
	C687.681030,94.441017 691.550110,91.460648 692.773804,88.581055
	C695.375427,82.458572 699.609314,82.953392 704.495667,83.601761
	C703.145996,95.594467 692.777527,104.790123 679.429565,105.845711
	C676.952087,106.041634 674.442688,105.832916 671.510498,105.762131
z"/>
<path fill="#4286F6" opacity="1.000000" stroke="none"
	d="
M574.849609,38.088646
	C576.006348,41.023159 576.727051,43.945679 577.595276,47.466194
	C574.880249,47.607117 573.276001,47.714680 571.669922,47.769669
	C563.422668,48.052010 559.069092,52.093399 558.912537,60.472599
	C558.660889,73.934128 558.804382,87.402962 558.761047,100.868637
	C558.756836,102.170212 558.612549,103.471336 558.511719,105.127159
	C555.415955,105.127159 552.517944,105.127159 549.297058,105.127159
	C549.297058,83.054512 549.297058,61.054607 549.297058,38.783463
	C552.361877,38.783463 555.275635,38.783463 558.358521,38.783463
	C558.622925,40.468536 558.848083,41.903316 558.896912,42.214283
	C564.093140,40.828682 569.253357,39.452667 574.849609,38.088646
z"/>
<path fill="#3E84F6" opacity="1.000000" stroke="none"
	d="
M826.853394,42.149162
	C826.864807,36.779762 830.658752,38.913498 832.717834,38.937283
	C834.258240,38.955078 835.778564,40.708843 837.966064,42.111767
	C842.322815,40.736153 847.979004,38.950245 854.756958,36.810143
	C854.756958,40.065453 854.606506,41.829388 854.789185,43.558117
	C855.138184,46.860645 853.747925,47.781788 850.519348,47.836456
	C840.944885,47.998581 837.146973,51.266026 836.698547,60.930920
	C836.113525,73.537529 836.362061,86.182907 836.257629,98.811638
	C836.241516,100.764847 836.255432,102.718307 836.255432,104.951401
	C832.969177,104.951401 830.237427,104.951401 826.850830,104.951401
	C826.850830,84.080856 826.850830,63.357567 826.853394,42.149162
z"/>
<path fill="#20305C" opacity="1.000000" stroke="none"
	d="
M516.860718,33.065331
	C516.860718,57.007439 516.860718,80.949547 516.860718,105.108673
	C513.575317,105.108673 510.469025,105.108673 506.994873,105.108673
	C506.994873,84.641716 506.946228,64.367828 507.104431,44.095566
	C507.114960,42.744991 508.533844,41.261562 509.580780,40.093727
	C511.576782,37.867252 513.777222,35.824081 516.190063,33.408150
	C516.487366,33.111500 516.860718,33.065331 516.860718,33.065331
z"/>
<path fill="#4488F6" opacity="1.000000" stroke="none"
	d="
M517.336792,33.016647
	C516.860718,33.065331 516.487366,33.111500 516.300781,33.088566
	C505.008301,33.065632 493.902374,33.065632 482.461365,33.065632
	C482.461365,29.684917 482.461365,26.776649 482.461365,23.481680
	C501.884521,23.481680 521.404541,23.481680 541.312622,23.481680
	C541.312622,26.398239 541.312622,29.425079 541.312622,32.967960
	C533.351990,32.967960 525.582458,32.967960 517.336792,33.016647
z"/>
</svg>
