<svg version="1.1" id="Layer_1" xmlns="http://www.w3.org/2000/svg" xmlns:xlink="http://www.w3.org/1999/xlink" x="0px" y="0px"
	 width="100%" viewBox="0 0 856 116" enable-background="new 0 0 856 116" xml:space="preserve">
<path fill="#3A80F2" opacity="1.000000" stroke="none"
	d="
M6.998386,56.943096
	C1.287562,46.092358 2.802428,40.061783 13.457303,35.346413
	C27.390228,29.180317 39.183292,20.519217 49.346577,9.186093
	C56.819286,0.853244 63.249798,0.879939 70.821701,9.282283
	C81.128296,20.719250 93.096062,29.438721 107.203445,35.614655
	C116.874062,39.848267 119.210693,46.404224 113.736603,55.341824
	C104.818642,69.902298 101.234406,85.853394 99.003479,102.399422
	C98.106430,109.052513 93.718002,112.790474 87.081436,112.833366
	C69.097733,112.949600 51.112400,112.939873 33.128506,112.838821
	C26.543993,112.801826 22.205990,109.006302 21.045063,102.509430
	C19.876717,95.971039 19.706663,89.140617 17.685581,82.895645
	C14.852760,74.142456 10.712133,65.812523 6.998386,56.943096
M101.709648,41.788399
	C87.380547,36.004349 75.568703,26.794470 65.512802,15.194034
	C65.404106,15.068644 65.273689,14.962251 65.155403,14.844978
	C60.631443,10.359710 59.178162,10.103840 55.063675,14.801340
	C44.361824,27.019617 31.786165,36.522968 16.681156,42.600529
	C16.219303,42.786354 15.781707,43.031567 15.326963,43.236115
	C11.591447,44.916393 11.171954,47.572773 12.938373,50.988777
	C15.382039,55.714489 18.081547,60.346817 20.055784,65.266228
	C22.374739,71.044609 24.189747,77.042877 25.915958,83.034325
	C26.827869,86.199440 27.086689,89.552719 27.695620,93.147186
	C30.722027,89.526192 33.009159,86.207809 35.881989,83.514061
	C38.829575,80.750206 42.349808,78.597084 45.618473,76.177368
	C37.420467,64.484390 37.649506,53.519733 46.241295,45.666126
	C53.977741,38.594383 65.705078,38.364975 73.625069,45.130455
	C82.867470,53.025581 83.290710,63.181499 75.391022,75.610504
	C81.306381,81.163704 87.098099,86.600822 93.091248,92.227051
	C93.092979,79.430962 97.527534,67.932587 104.025475,57.092339
	C104.792801,55.812233 105.368919,54.417847 106.039467,53.079342
	C109.504402,46.162884 109.311111,45.579132 101.709648,41.788399
M61.375916,82.004234
	C59.637745,82.004234 57.899570,82.004234 56.025318,82.004234
	C56.195034,85.991135 54.501263,90.017883 59.042233,91.516937
	C60.227943,91.908363 63.312164,90.426369 63.367035,89.651939
	C63.544567,87.146126 62.718708,84.569214 61.375916,82.004234
z"/>
<path fill="#FDFDFD" opacity="1.000000" stroke="none"
	d="
M426.830627,38.065502
	C433.908936,38.442493 439.713257,40.909061 445.478638,46.032413
	C445.478638,37.858204 445.478638,30.662483 445.478638,23.328468
	C451.200745,23.328468 456.310333,23.328468 461.747192,23.328468
	C461.747192,50.615871 461.747192,77.794220 461.747192,105.138885
	C456.481384,105.138885 451.369171,105.138885 445.869812,105.138885
	C445.638611,103.091736 445.410980,101.076218 445.171814,98.958771
	C429.112244,107.892349 416.704773,108.102760 406.734039,99.742393
	C395.250641,90.113701 391.062775,73.922112 396.185883,58.959667
	C400.593811,46.085773 411.589722,38.475128 426.830627,38.065502
M438.714905,55.417877
	C432.977509,54.986347 427.094055,53.609840 421.555603,54.465744
	C418.043396,55.008514 413.937042,58.212444 412.042267,61.384735
	C407.878113,68.356430 408.336761,76.120285 412.514008,83.113960
	C413.921814,85.471031 416.704468,88.014877 419.248657,88.523659
	C437.393799,92.152344 446.811981,88.521278 445.517914,70.587921
	C445.410522,69.099297 445.333160,67.608208 445.263000,66.117264
	C445.054382,61.684147 443.301880,58.131802 438.714905,55.417877
z"/>
<path fill="#FCFCFC" opacity="1.000000" stroke="none"
	d="
M251.322449,47.323235
	C262.001740,34.822933 294.401825,34.234234 305.010498,49.755566
	C310.711029,58.095905 311.305023,67.380424 310.980164,77.436981
	C293.901093,77.436981 276.977020,77.436981 258.491302,77.436981
	C260.759216,80.982315 261.982208,83.881744 264.048431,85.930977
	C269.336639,91.175705 284.876038,91.391365 290.081390,86.034813
	C292.749603,83.289154 295.365234,82.605865 298.813782,82.788116
	C302.277496,82.971176 305.758423,82.828369 309.532776,82.828369
	C308.347107,91.362778 304.373657,97.774185 297.213928,101.520836
	C285.531799,107.634026 273.206909,107.556458 260.995209,103.191513
	C251.383026,99.755737 246.087234,92.192657 244.279724,82.494980
	C241.967239,70.087921 242.219299,57.936996 251.322449,47.323235
M267.151398,55.285217
	C264.764679,57.494080 262.377930,59.702942 259.991211,61.911800
	C260.287811,62.269188 260.584381,62.626572 260.880981,62.983955
	C271.795929,62.983955 282.710907,62.983955 293.801910,62.983955
	C292.155426,57.956310 288.784821,54.840504 284.140991,54.435112
	C278.786072,53.967636 273.322296,54.746712 267.151398,55.285217
z"/>
<path fill="#FCFCFC" opacity="1.000000" stroke="none"
	d="
M383.852600,38.694679
	C385.170135,39.570671 386.723358,40.440926 386.729004,41.321129
	C386.864685,62.433327 386.834625,83.546585 386.834625,104.982094
	C381.231659,104.982094 375.981415,104.982094 370.194305,104.982094
	C370.099854,103.135445 369.993652,101.059128 369.849518,98.241119
	C362.799133,104.363396 354.963867,107.046844 345.990082,105.780891
	C337.130188,104.530998 330.140594,100.262405 324.960571,92.963455
	C315.653778,79.849586 316.853241,58.980358 327.595978,47.688477
	C338.738007,35.976883 354.043182,35.008194 369.786041,45.300060
	C369.908966,43.187248 370.019775,41.282455 370.170410,38.693577
	C374.533325,38.693577 378.950317,38.693577 383.852600,38.694679
M367.610199,59.108017
	C361.804382,53.031734 347.255219,51.615078 340.483612,56.593716
	C339.052612,57.645824 337.702240,59.050781 336.836487,60.587181
	C332.770691,67.802628 332.909882,75.314392 336.604034,82.498131
	C339.947479,88.999863 346.277374,89.945869 352.862854,89.685257
	C355.177643,89.593643 357.497772,89.411942 359.793274,89.105164
	C364.776917,88.439125 368.205719,85.515747 369.146423,80.735390
	C370.523315,73.738640 371.173248,66.604637 367.610199,59.108017
z"/>
<path fill="#FBFBFB" opacity="1.000000" stroke="none"
	d="
M230.982727,88.691711
	C233.477768,88.691711 235.473602,88.691711 237.821167,88.691711
	C237.821167,94.170792 237.821167,99.542343 237.821167,105.029175
	C222.760376,105.029175 207.802979,105.411644 192.877792,104.883659
	C184.127762,104.574127 177.054337,97.040276 175.842331,87.997948
	C175.270752,83.733505 175.332245,79.368347 175.316696,75.048080
	C175.260971,59.556713 175.288544,44.065018 175.304199,28.573467
	C175.305832,26.948917 175.437073,25.324499 175.519562,23.440126
	C181.074890,23.440126 186.308701,23.440126 192.076523,23.440126
	C192.076523,27.631969 192.076523,31.743998 192.076523,35.856026
	C192.076523,51.680744 192.223816,67.507729 191.980240,83.328697
	C191.913483,87.664230 193.510727,88.809212 197.502426,88.748970
	C208.493912,88.583061 219.489532,88.691689 230.982727,88.691711
z"/>
<path fill="#3A7FF0" opacity="1.000000" stroke="none"
	d="
M638.937866,90.993759
	C638.937866,95.944611 638.937866,100.397049 638.937866,105.010818
	C635.495789,105.010818 632.586487,105.010818 629.378052,105.010818
	C629.224854,102.879829 629.089844,101.001808 628.910156,98.501778
	C618.153198,107.321243 606.782898,108.172844 594.971558,102.978218
	C585.335083,98.740089 580.379333,90.591103 578.725952,80.544205
	C576.685974,68.148727 577.593872,56.159889 587.049744,46.625965
	C597.435425,36.154591 614.225342,35.105370 626.355530,43.759727
	C626.993774,44.215073 627.663025,44.626762 628.844910,45.406494
	C629.035767,43.096500 629.178589,41.367561 629.359924,39.172180
	C632.338562,39.172180 635.358032,39.172180 638.937866,39.172180
	C638.937866,56.301647 638.937866,73.398499 638.937866,90.993759
M602.086609,47.971737
	C595.882080,49.028519 592.182556,53.023937 589.913147,58.553482
	C586.760803,66.234177 586.747742,74.170166 588.886536,82.026672
	C591.573120,91.895416 597.166321,95.885529 607.453735,95.921532
	C609.285583,95.927948 611.119446,95.972679 612.949036,95.907364
	C622.161926,95.578438 628.287903,89.961998 628.892517,80.727928
	C629.283264,74.760719 629.336121,68.723236 628.912598,62.761841
	C628.231934,53.180786 622.572083,48.055229 612.956604,47.762501
	C609.632874,47.661316 606.300537,47.843304 602.086609,47.971737
z"/>
<path fill="#3A80F2" opacity="1.000000" stroke="none"
	d="
M778.804932,39.572735
	C784.464050,39.088432 789.865112,37.868969 795.002563,38.572968
	C809.006287,40.491924 817.820251,50.855953 818.964478,65.678474
	C819.166809,68.299690 818.993164,70.949928 818.993164,74.177490
	C802.534851,74.177490 786.132812,74.177490 769.270447,74.177490
	C769.757507,80.908951 769.819214,87.084618 774.446472,91.904541
	C781.677795,99.437096 800.485840,97.530327 806.164185,88.768257
	C809.970642,82.894600 809.970581,82.894554 817.591431,83.825729
	C816.622681,95.170341 805.949585,104.520737 792.459778,105.842789
	C776.302979,107.426216 764.270630,98.906212 760.606262,82.954445
	C758.560242,74.047745 758.909851,65.157692 761.881409,56.403015
	C764.698669,48.102692 770.228149,42.617100 778.804932,39.572735
M784.223206,47.708275
	C774.179504,49.177830 769.444824,55.051922 770.206299,65.191467
	C783.068909,65.191467 795.934814,65.191467 808.811523,65.191467
	C808.334534,53.141834 803.482788,48.147690 792.073425,47.656937
	C789.744629,47.556763 787.408081,47.638008 784.223206,47.708275
z"/>
<path fill="#3A81F4" opacity="1.000000" stroke="none"
	d="
M726.349854,60.355827
	C731.660400,55.044975 737.249451,50.399647 741.640381,44.812710
	C746.494873,38.636097 752.363220,37.772636 760.178833,39.192650
	C750.985229,47.567635 742.117493,55.645790 733.107239,63.853729
	C744.165039,78.449478 753.934021,91.344009 763.740906,104.288582
	C756.799988,106.673637 753.431641,105.710999 749.354614,100.372002
	C742.225586,91.036308 735.075378,81.716797 727.983521,72.455185
	C723.298096,75.193634 721.747620,78.814957 722.056519,83.869270
	C722.479797,90.794731 722.162415,97.765465 722.162415,104.995667
	C718.957703,104.995667 716.209839,104.995667 713.087341,104.995667
	C713.087341,77.926743 713.087341,50.894226 713.087341,23.511421
	C715.821655,23.511421 718.568115,23.511421 721.785645,23.511421
	C721.785645,36.608696 721.785645,49.828876 721.785645,64.517853
	C723.870178,62.627934 724.985107,61.617039 726.349854,60.355827
z"/>
<path fill="#3A7FF1" opacity="1.000000" stroke="none"
	d="
M662.047607,50.914093
	C660.164062,54.189217 657.455322,57.137295 657.209839,60.277943
	C656.593994,68.154366 656.766541,76.141014 657.324036,84.033928
	C657.516479,86.759132 659.283569,89.783943 661.187317,91.903015
	C667.793945,99.256958 688.303894,97.606178 692.714539,88.785530
	C695.644165,82.926651 699.441833,83.066284 704.870605,83.744606
	C702.875488,92.528984 698.324585,99.311501 690.137756,102.971710
	C673.741943,110.302071 649.786255,105.452911 646.755798,78.826721
	C645.682678,69.398140 646.254333,60.212479 650.869446,51.673981
	C656.206055,41.800739 667.700928,36.502666 680.813293,38.222198
	C692.342102,39.734062 700.391479,45.903248 704.147583,57.161163
	C704.293823,57.599449 704.166260,58.129070 704.166260,58.706142
	C699.212830,59.524380 694.969238,59.927116 692.314026,54.036812
	C690.387756,49.763680 686.092468,47.690212 681.166870,47.824203
	C674.779785,47.997948 668.106934,46.358940 662.047607,50.914093
z"/>
<path fill="#397EEE" opacity="1.000000" stroke="none"
	d="
M558.733398,101.738831
	C557.822266,103.238678 557.061218,104.896935 555.970764,105.153137
	C553.941650,105.629883 551.720581,105.289909 549.285095,105.289909
	C549.285095,83.106239 549.285095,61.233524 549.285095,39.030495
	C552.218567,39.030495 555.110229,39.030495 558.339111,39.030495
	C558.571350,40.424030 558.806824,41.836998 558.912659,42.472088
	C564.503967,40.711628 570.175781,38.925831 576.529419,36.925362
	C576.529419,41.190205 576.529419,44.101662 576.529419,47.737553
	C574.930481,47.737553 573.333923,47.694061 571.740417,47.744839
	C563.447510,48.009094 559.075439,51.995770 558.901917,60.357140
	C558.619080,73.988243 558.768127,87.628311 558.733398,101.738831
z"/>
<path fill="#3A80F3" opacity="1.000000" stroke="none"
	d="
M826.835205,82.999908
	C826.835205,68.066750 826.835205,53.633553 826.835205,38.960781
	C830.119263,38.960781 832.872498,38.960781 835.899902,38.960781
	C836.158508,40.424084 836.400024,41.790478 836.523376,42.488529
	C842.451904,40.674946 848.124390,38.939678 854.422119,37.013142
	C854.422119,41.333233 854.422119,44.226643 854.422119,47.421692
	C852.696899,47.533482 851.246582,47.664387 849.793518,47.715519
	C841.395020,48.011055 837.049988,51.633793 836.675171,60.138638
	C836.148132,72.098930 836.374634,84.092583 836.288269,96.072037
	C836.268005,98.882469 836.285339,101.693169 836.285339,104.893173
	C833.127258,104.893173 830.264832,104.893173 826.835266,104.893173
	C826.835266,97.716812 826.835266,90.608345 826.835205,82.999908
z"/>
<path fill="#F5F5F5" opacity="1.000000" stroke="none"
	d="
M507.068024,82.999924
	C507.068024,71.856697 507.831207,61.140644 506.825165,50.593357
	C506.028625,42.242805 510.921112,38.457176 516.558594,33.462471
	C516.558594,57.813683 516.558594,81.409851 516.558594,105.157860
	C513.590271,105.157860 510.631683,105.157860 507.068024,105.157860
	C507.068024,97.975082 507.068024,90.737488 507.068024,82.999924
z"/>
<path fill="#387CEA" opacity="1.000000" stroke="none"
	d="
M531.951538,23.124226
	C535.266602,23.124249 538.090942,23.124249 541.282104,23.124249
	C541.282104,26.386917 541.282104,29.426527 541.282104,32.692287
	C540.341614,32.783924 539.544983,32.928791 538.748169,32.929333
	C520.112854,32.942066 501.477539,32.939194 482.490112,32.939194
	C482.490112,29.770456 482.490112,26.851463 482.490112,23.124201
	C498.670197,23.124201 515.065491,23.124201 531.951538,23.124226
z"/>
</svg>
